<svg width="390" height="844" viewBox="0 0 390 844" fill="none" xmlns="http://www.w3.org/2000/svg">
<mask id="mask0_291_34" style="mask-type:alpha" maskUnits="userSpaceOnUse" x="0" y="0" width="390" height="844">
<rect width="390" height="844" fill="#070302"/>
</mask>
<g mask="url(#mask0_291_34)">
<path d="M342.379 425.318C353.853 551.06 316.88 613.807 277.167 645.142C257.296 660.821 236.708 668.661 221.086 672.582C213.275 674.542 206.709 675.522 202.097 676.011C199.792 676.256 197.976 676.378 196.738 676.439C196.119 676.47 195.644 676.485 195.325 676.492C195.254 676.494 195.19 676.496 195.134 676.497C195.066 676.498 195.009 676.499 194.965 676.499C194.925 676.5 194.895 676.5 194.876 676.5L194.854 676.5L194.849 676.5C194.848 676.5 194.847 676.5 194.847 677C194.847 676.759 194.847 676.634 194.847 676.57C194.847 676.5 194.847 676.5 194.846 676.5L194.841 676.5L194.818 676.5C194.798 676.5 194.767 676.5 194.726 676.499C194.644 676.498 194.52 676.496 194.357 676.492C194.03 676.485 193.543 676.47 192.909 676.439C191.639 676.378 189.779 676.256 187.418 676.011C182.698 675.521 175.982 674.542 168.01 672.581C152.064 668.66 131.107 660.819 111.047 645.14C70.9602 613.808 34.3254 551.068 48.6771 425.329C57.9701 343.911 94.585 279.427 128.889 235.29C146.039 213.223 162.609 196.247 174.889 184.788C181.029 179.059 186.096 174.71 189.627 171.795C191.392 170.337 192.774 169.237 193.713 168.503C194.182 168.136 194.541 167.86 194.783 167.676C194.81 167.655 194.835 167.636 194.859 167.617C194.885 167.635 194.912 167.654 194.941 167.675C195.191 167.85 195.563 168.114 196.049 168.466C197.021 169.169 198.451 170.224 200.277 171.626C203.928 174.43 209.165 178.624 215.498 184.182C228.165 195.296 245.215 211.86 262.742 233.651C297.797 277.235 334.749 341.712 342.379 425.318Z" fill="white" stroke="white"/>
<path d="M324.712 425.11C339.846 536.207 307.144 591.623 270.798 619.295C252.606 633.145 233.467 640.073 218.871 643.538C211.574 645.27 205.416 646.135 201.085 646.568C198.919 646.784 197.211 646.892 196.046 646.946C195.463 646.973 195.016 646.987 194.716 646.993C194.674 646.994 194.636 646.995 194.6 646.996C194.506 646.998 194.431 646.999 194.376 646.999L194.292 647L194.271 647H194.266C194.266 647 194.266 647 194.266 647.022C194.265 647.063 194.265 647.177 194.265 647.5C194.265 647 194.265 647 194.264 647H194.259L194.239 647L194.156 646.999C194.082 646.998 193.97 646.997 193.822 646.993C193.527 646.987 193.087 646.973 192.514 646.946C191.367 646.892 189.685 646.784 187.554 646.568C183.29 646.135 177.227 645.27 170.04 643.538C155.664 640.074 136.803 633.147 118.847 619.297C82.9691 591.625 50.5668 536.207 65.0244 425.107C77.8664 326.421 110.26 277.165 139.359 252.575C153.913 240.277 167.658 234.134 177.754 231.065C182.803 229.53 186.94 228.764 189.811 228.381C191.246 228.19 192.365 228.095 193.122 228.047C193.501 228.023 193.789 228.012 193.981 228.006C194.077 228.003 194.15 228.001 194.197 228.001L194.25 228L194.262 228L194.265 228C194.265 228 194.265 228 194.265 227.898C194.265 228 194.265 228 194.265 228L194.268 228L194.28 228L194.333 228.001C194.381 228.001 194.453 228.003 194.549 228.006C194.742 228.012 195.03 228.023 195.409 228.047C196.166 228.095 197.285 228.19 198.722 228.381C201.595 228.764 205.737 229.53 210.795 231.065C220.911 234.134 234.694 240.277 249.323 252.576C278.573 277.167 311.267 326.424 324.712 425.11Z" fill="black" stroke="white"/>
<path d="M205 521.5L265.462 521.5L325 521.5" stroke="white"/>
<path d="M65 521.5H125.462H185" stroke="white"/>
<line x1="174.5" y1="368" x2="174.5" y2="233" stroke="white"/>
<line x1="174.5" y1="521" x2="174.5" y2="388" stroke="white"/>
<line x1="214.5" y1="368" x2="214.5" y2="233" stroke="white"/>
<line x1="214.5" y1="522" x2="214.5" y2="388" stroke="white"/>
<rect x="214.5" y="521.5" width="31" height="31" stroke="white"/>
<g filter="url(#filter0_f_291_34)">
<ellipse cx="266" cy="392.5" rx="57.5" ry="18" transform="rotate(90 266 392.5)" fill="#404040"/>
</g>
<g filter="url(#filter1_f_291_34)">
<ellipse cx="201.5" cy="574" rx="57.5" ry="18" transform="rotate(-180 201.5 574)" fill="#7338AC"/>
</g>
<path d="M156.68 577.63C156.905 577.63 157.115 577.825 157.115 578.065C157.115 578.305 156.905 578.5 156.68 578.5H144.47C143.39 578.5 142.37 578.08 141.62 577.315C140 575.695 140 572.38 141.62 570.745C142.37 569.995 143.39 569.56 144.47 569.56H156.68C156.905 569.56 157.115 569.755 157.115 569.995C157.115 570.235 156.905 570.43 156.68 570.43H144.47C143.615 570.43 142.82 570.775 142.235 571.375C140.945 572.65 140.945 575.425 142.235 576.7C142.82 577.3 143.615 577.63 144.47 577.63H156.68ZM176.372 571.375C175.787 570.775 174.992 570.43 174.152 570.43H164.582C163.727 570.43 162.932 570.775 162.347 571.375C161.057 572.65 161.057 575.425 162.347 576.7C162.932 577.3 163.727 577.63 164.582 577.63H174.152C174.992 577.63 175.787 577.3 176.372 576.7C177.662 575.425 177.662 572.65 176.372 571.375ZM161.732 570.745C162.482 569.995 163.502 569.56 164.582 569.56H174.152C175.217 569.56 176.237 569.995 177.002 570.745C178.622 572.38 178.622 575.695 177.002 577.315C176.237 578.08 175.217 578.5 174.152 578.5H164.582C163.502 578.5 162.482 578.08 161.732 577.315C160.112 575.695 160.112 572.38 161.732 570.745ZM198.296 577.63C198.521 577.63 198.731 577.825 198.731 578.065C198.731 578.305 198.521 578.5 198.296 578.5H186.086C185.006 578.5 183.986 578.08 183.236 577.315C181.616 575.695 181.616 572.38 183.236 570.745C183.986 569.995 185.006 569.56 186.086 569.56H198.296C198.521 569.56 198.731 569.755 198.731 569.995C198.731 570.235 198.521 570.43 198.296 570.43H186.086C185.231 570.43 184.436 570.775 183.851 571.375C182.561 572.65 182.561 575.425 183.851 576.7C184.436 577.3 185.231 577.63 186.086 577.63H198.296ZM202.599 573.595H213.414L218.724 569.65C218.919 569.515 219.189 569.545 219.339 569.74C219.474 569.935 219.444 570.205 219.249 570.355L214.284 574.03L219.249 577.72C219.444 577.87 219.474 578.14 219.339 578.335C219.189 578.53 218.919 578.56 218.724 578.425L213.414 574.465H202.599V578.065C202.599 578.305 202.389 578.5 202.164 578.5C201.924 578.5 201.729 578.305 201.729 578.065V569.995C201.729 569.755 201.924 569.56 202.164 569.56C202.389 569.56 202.599 569.755 202.599 569.995V573.595ZM236.36 573.595C237.23 573.595 237.95 572.89 237.95 572.02C237.95 571.15 237.23 570.43 236.36 570.43H234.26H232.715C232.7 570.43 232.67 570.43 232.64 570.43H224.405C223.835 570.43 223.34 570.91 223.34 571.495V573.595H223.355H223.655H236.36ZM223.355 577.45V578.065C223.355 578.305 223.145 578.5 222.92 578.5C222.68 578.5 222.485 578.305 222.485 578.065V575.83V571.495C222.485 570.43 223.355 569.56 224.405 569.56H232.64H236.36C237.71 569.56 238.82 570.67 238.82 572.02C238.82 573.175 237.995 574.18 236.885 574.42C236.705 574.45 236.54 574.465 236.36 574.465H223.355V575.905V577.45ZM242.691 578.065C242.691 578.305 242.496 578.5 242.256 578.5C242.016 578.5 241.821 578.305 241.821 578.065V569.995C241.821 569.755 242.016 569.56 242.256 569.56C242.496 569.56 242.691 569.755 242.691 569.995V578.065ZM260.958 570.43H253.983V578.065C253.983 578.305 253.773 578.5 253.533 578.5C253.308 578.5 253.098 578.305 253.098 578.065V570.43H246.123C245.883 570.43 245.688 570.235 245.688 569.995C245.688 569.755 245.883 569.56 246.123 569.56H260.958C261.198 569.56 261.393 569.755 261.393 569.995C261.393 570.235 261.198 570.43 260.958 570.43Z" fill="white"/>
<path d="M252.095 434.305C252.095 432.955 253.205 431.845 254.555 431.845C255.905 431.845 257 432.955 257 434.305L257 448.615C257 448.855 256.805 449.05 256.565 449.05C256.325 449.05 256.13 448.855 256.13 448.615L256.13 434.305C256.13 433.435 255.425 432.73 254.555 432.73C253.685 432.73 252.965 433.435 252.965 434.305L252.965 447.1C252.965 448.45 251.87 449.545 250.52 449.545C249.17 449.545 248.06 448.45 248.06 447.1L248.06 432.79C248.06 432.55 248.255 432.34 248.495 432.34C248.735 432.34 248.93 432.55 248.93 432.79L248.93 447.1C248.93 447.97 249.65 448.675 250.52 448.675C251.39 448.675 252.095 447.97 252.095 447.1L252.095 434.305ZM254.405 412.032L254.405 427.977L256.565 427.977C256.805 427.977 257 428.172 257 428.412C257 428.652 256.805 428.847 256.565 428.847L252.53 428.847C251.36 428.847 250.1 428.487 249.245 427.632C248.495 426.882 248.06 425.862 248.06 424.782L248.06 421.152L248.06 418.857L248.06 415.212C248.06 414.147 248.495 413.127 249.245 412.362C250.1 411.522 251.36 411.147 252.53 411.147L256.565 411.147C256.805 411.147 257 411.357 257 411.582C257 411.822 256.805 412.032 256.565 412.032L254.405 412.032ZM248.93 421.152L248.93 424.782C248.93 425.637 249.275 426.432 249.875 427.017C250.55 427.707 251.6 427.977 252.53 427.977L253.085 427.977L253.52 427.977L253.52 412.032L253.085 412.032L252.53 412.032C251.6 412.032 250.55 412.302 249.875 412.992C249.275 413.577 248.93 414.372 248.93 415.212L248.93 418.857L248.93 421.152ZM253.085 407.248C253.865 407.158 254.66 406.873 255.2 406.318C255.8 405.733 256.13 404.938 256.13 404.083L256.13 391.888C256.13 391.648 256.325 391.438 256.565 391.438C256.805 391.438 257 391.648 257 391.888L257 404.083C257 405.163 256.58 406.183 255.815 406.933C254.975 407.788 253.715 408.148 252.53 408.148L248.495 408.148C248.255 408.148 248.06 407.953 248.06 407.713C248.06 407.503 248.225 407.323 248.435 407.293C248.465 407.278 248.48 407.278 248.495 407.278L253.085 407.278L253.085 407.248ZM253.085 387.532C253.865 387.442 254.66 387.157 255.2 386.602C255.8 386.017 256.13 385.222 256.13 384.367L256.13 372.172C256.13 371.932 256.325 371.722 256.565 371.722C256.805 371.722 257 371.932 257 372.172L257 384.367C257 385.447 256.58 386.467 255.815 387.217C254.975 388.072 253.715 388.432 252.53 388.432L248.495 388.432C248.255 388.432 248.06 388.237 248.06 387.997C248.06 387.787 248.225 387.607 248.435 387.577C248.465 387.562 248.48 387.562 248.495 387.562L253.085 387.562L253.085 387.532ZM248.93 364.575C248.93 365.415 249.275 366.21 249.875 366.81C251.15 368.085 253.925 368.085 255.2 366.81C255.8 366.21 256.13 365.415 256.13 364.575L256.13 352.365C256.13 352.125 256.325 351.93 256.565 351.93C256.805 351.93 257 352.125 257 352.365L257 364.575C257 365.64 256.58 366.66 255.815 367.425C254.195 369.045 250.88 369.045 249.245 367.425C248.495 366.66 248.06 365.64 248.06 364.575L248.06 352.365C248.06 352.125 248.255 351.93 248.495 351.93C248.735 351.93 248.93 352.125 248.93 352.365L248.93 364.575ZM252.53 364.665C252.77 364.665 252.965 364.47 252.965 364.23L252.965 353.355C252.965 353.115 252.77 352.92 252.53 352.92C252.29 352.92 252.095 353.115 252.095 353.355L252.095 364.23C252.095 364.47 252.29 364.665 252.53 364.665ZM268.13 400.314C268.13 399.474 267.8 398.679 267.2 398.094C265.925 396.804 263.15 396.804 261.875 398.094C261.275 398.679 260.93 399.474 260.93 400.314L260.93 413.079L268.13 413.079L268.13 400.314ZM260.06 400.314C260.06 399.249 260.495 398.229 261.245 397.464C262.88 395.844 266.195 395.844 267.815 397.464C268.58 398.229 269 399.249 269 400.314L269 413.514C269 413.754 268.805 413.949 268.565 413.949L260.495 413.949C260.255 413.949 260.06 413.754 260.06 413.514L260.06 400.314ZM260.93 388.701C260.93 389.541 261.275 390.336 261.875 390.936C263.15 392.211 265.925 392.211 267.2 390.936C267.8 390.336 268.13 389.541 268.13 388.701L268.13 376.491C268.13 376.251 268.325 376.056 268.565 376.056C268.805 376.056 269 376.251 269 376.491L269 388.701C269 389.766 268.58 390.786 267.815 391.551C266.195 393.171 262.88 393.171 261.245 391.551C260.495 390.786 260.06 389.766 260.06 388.701L260.06 376.491C260.06 376.251 260.255 376.056 260.495 376.056C260.735 376.056 260.93 376.251 260.93 376.491L260.93 388.701ZM264.53 388.791C264.77 388.791 264.965 388.596 264.965 388.356L264.965 377.481C264.965 377.241 264.77 377.046 264.53 377.046C264.29 377.046 264.095 377.241 264.095 377.481L264.095 388.356C264.095 388.596 264.29 388.791 264.53 388.791ZM276.965 453.978L280.565 453.978C280.805 453.978 281 454.188 281 454.413C281 454.653 280.805 454.848 280.565 454.848L273.995 454.848C272.93 454.848 272.06 453.978 272.06 452.928L272.06 440.973C272.06 439.623 273.17 438.513 274.52 438.513C275.87 438.513 276.965 439.623 276.965 440.973L276.965 442.143C277.58 440.913 278.495 439.833 279.62 439.038C279.86 438.873 280.1 438.708 280.355 438.573C280.565 438.453 280.835 438.528 280.955 438.738C281.06 438.948 281 439.218 280.79 439.338C278.435 440.658 276.965 443.133 276.965 445.833L276.965 453.978ZM276.095 440.973C276.095 440.103 275.39 439.383 274.52 439.383C273.65 439.383 272.93 440.103 272.93 440.973L272.93 443.073L272.93 444.618C272.93 444.633 272.93 444.663 272.93 444.693L272.93 452.928C272.93 453.498 273.41 453.993 273.995 453.993L276.095 453.993L276.095 453.978L276.095 453.678L276.095 440.973ZM272.93 431.313C272.93 432.153 273.275 432.948 273.875 433.548C275.15 434.823 277.925 434.823 279.2 433.548C279.8 432.948 280.13 432.153 280.13 431.313L280.13 419.103C280.13 418.863 280.325 418.668 280.565 418.668C280.805 418.668 281 418.863 281 419.103L281 431.313C281 432.378 280.58 433.398 279.815 434.163C278.195 435.783 274.88 435.783 273.245 434.163C272.495 433.398 272.06 432.378 272.06 431.313L272.06 419.103C272.06 418.863 272.255 418.668 272.495 418.668C272.735 418.668 272.93 418.863 272.93 419.103L272.93 431.313ZM276.53 431.403C276.77 431.403 276.965 431.208 276.965 430.968L276.965 420.093C276.965 419.853 276.77 419.658 276.53 419.658C276.29 419.658 276.095 419.853 276.095 420.093L276.095 430.968C276.095 431.208 276.29 431.403 276.53 431.403ZM277.07 414.763C277.85 414.673 278.645 414.388 279.2 413.833C279.8 413.248 280.13 412.453 280.13 411.598L280.13 402.028C280.13 401.188 279.8 400.393 279.2 399.808C278.645 399.253 277.85 398.953 277.07 398.878L277.07 398.848L272.495 398.848C272.255 398.848 272.06 398.638 272.06 398.398C272.06 398.173 272.255 397.963 272.495 397.963L276.53 397.963C277.715 397.963 278.975 398.338 279.815 399.178C280.58 399.943 281 400.963 281 402.028L281 411.598C281 412.678 280.58 413.698 279.815 414.448C278.975 415.303 277.715 415.663 276.53 415.663L276.515 415.663L272.495 415.663C272.255 415.663 272.06 415.468 272.06 415.228C272.06 414.988 272.255 414.793 272.495 414.793L277.07 414.793L277.07 414.763ZM272.495 394.965C272.465 394.965 272.435 394.965 272.405 394.965C272.36 394.95 272.33 394.935 272.3 394.92C272.21 394.875 272.15 394.815 272.105 394.725C272.075 394.665 272.06 394.605 272.06 394.53L272.06 394.515C272.075 394.44 272.09 394.38 272.12 394.32L279.83 380.13L272.495 380.13C272.255 380.13 272.06 379.935 272.06 379.695C272.06 379.455 272.255 379.26 272.495 379.26L280.565 379.26C280.595 379.26 280.625 379.26 280.655 379.26C280.7 379.275 280.745 379.29 280.775 379.305C280.865 379.35 280.925 379.425 280.97 379.5C281 379.56 281 379.62 281 379.695L281 379.71C281 379.785 280.985 379.845 280.955 379.905L273.23 394.095L280.565 394.095C280.805 394.095 281 394.305 281 394.53C281 394.77 280.805 394.965 280.565 394.965L272.495 394.965ZM280.565 375.374C280.805 375.374 281 375.569 281 375.809C281 376.049 280.805 376.244 280.565 376.244L272.495 376.244C272.255 376.244 272.06 376.049 272.06 375.809C272.06 375.569 272.255 375.374 272.495 375.374L280.565 375.374ZM273.875 356.117C273.275 356.702 272.93 357.497 272.93 358.337L272.93 367.907C272.93 368.762 273.275 369.557 273.875 370.142C275.15 371.432 277.925 371.432 279.2 370.142C279.8 369.557 280.13 368.762 280.13 367.907L280.13 358.337C280.13 357.497 279.8 356.702 279.2 356.117C277.925 354.827 275.15 354.827 273.875 356.117ZM273.245 370.757C272.495 370.007 272.06 368.987 272.06 367.907L272.06 358.337C272.06 357.272 272.495 356.252 273.245 355.487C274.88 353.867 278.195 353.867 279.815 355.487C280.58 356.252 281 357.272 281 358.337L281 367.907C281 368.987 280.58 370.007 279.815 370.757C278.195 372.377 274.88 372.377 273.245 370.757ZM272.495 350.873C272.465 350.873 272.435 350.873 272.405 350.873C272.36 350.858 272.33 350.843 272.3 350.828C272.21 350.783 272.15 350.723 272.105 350.633C272.075 350.573 272.06 350.513 272.06 350.438L272.06 350.423C272.075 350.348 272.09 350.288 272.12 350.228L279.83 336.038L272.495 336.038C272.255 336.038 272.06 335.843 272.06 335.603C272.06 335.363 272.255 335.168 272.495 335.168L280.565 335.168C280.595 335.168 280.625 335.168 280.655 335.168C280.7 335.183 280.745 335.198 280.775 335.213C280.865 335.258 280.925 335.333 280.97 335.408C281 335.468 281 335.528 281 335.603L281 335.618C281 335.693 280.985 335.753 280.955 335.813L273.23 350.003L280.565 350.003C280.805 350.003 281 350.213 281 350.438C281 350.678 280.805 350.873 280.565 350.873L272.495 350.873Z" fill="white"/>
<g filter="url(#filter2_f_291_34)">
<ellipse cx="122" cy="396.5" rx="57.5" ry="18" transform="rotate(90 122 396.5)" fill="#2058EB"/>
</g>
<path d="M116.495 453.206L124.565 453.206C124.805 453.206 125 453.401 125 453.641C125 453.881 124.805 454.076 124.565 454.076L120.965 454.076L120.965 468.041L124.565 468.041C124.805 468.041 125 468.236 125 468.476C125 468.716 124.805 468.911 124.565 468.911L116.495 468.911C116.255 468.911 116.06 468.716 116.06 468.476C116.06 468.236 116.255 468.041 116.495 468.041L120.095 468.041L120.095 454.076L116.495 454.076C116.255 454.076 116.06 453.881 116.06 453.641C116.06 453.401 116.255 453.206 116.495 453.206ZM122.405 433.375L122.405 449.32L124.565 449.32C124.805 449.32 125 449.515 125 449.755C125 449.995 124.805 450.19 124.565 450.19L120.53 450.19C119.36 450.19 118.1 449.83 117.245 448.975C116.495 448.225 116.06 447.205 116.06 446.125L116.06 442.495L116.06 440.2L116.06 436.555C116.06 435.49 116.495 434.47 117.245 433.705C118.1 432.865 119.36 432.49 120.53 432.49L124.565 432.49C124.805 432.49 125 432.7 125 432.925C125 433.165 124.805 433.375 124.565 433.375L122.405 433.375ZM116.93 442.495L116.93 446.125C116.93 446.98 117.275 447.775 117.875 448.36C118.55 449.05 119.6 449.32 120.53 449.32L121.085 449.32L121.52 449.32L121.52 433.375L121.085 433.375L120.53 433.375C119.6 433.375 118.55 433.645 117.875 434.335C117.275 434.92 116.93 435.715 116.93 436.555L116.93 440.2L116.93 442.495ZM120.095 425.097L120.095 414.237C120.095 413.382 119.375 412.677 118.52 412.677C117.65 412.677 116.93 413.382 116.93 414.252L116.93 428.622L120.095 428.622L120.095 425.097ZM120.965 428.622L124.13 428.622L124.13 414.252C124.13 413.382 123.425 412.677 122.555 412.677C121.685 412.677 120.98 413.382 120.965 414.237L120.965 423.957L120.965 425.097L120.965 428.622ZM116.06 414.252C116.06 412.902 117.17 411.792 118.52 411.792C119.135 411.792 119.705 412.032 120.17 412.437L120.53 412.767L120.905 412.437C121.355 412.032 121.94 411.792 122.555 411.792C123.905 411.792 125 412.902 125 414.252L125 429.057C125 429.297 124.805 429.492 124.565 429.492L116.495 429.492C116.255 429.492 116.06 429.297 116.06 429.057L116.06 414.252ZM124.565 407.924C124.805 407.924 125 408.119 125 408.359C125 408.599 124.805 408.794 124.565 408.794L116.495 408.794C116.255 408.794 116.06 408.599 116.06 408.359C116.06 408.119 116.255 407.924 116.495 407.924L124.565 407.924ZM116.93 389.657L116.93 396.632L124.565 396.632C124.805 396.632 125 396.842 125 397.082C125 397.307 124.805 397.517 124.565 397.517L116.93 397.517L116.93 404.492C116.93 404.732 116.735 404.927 116.495 404.927C116.255 404.927 116.06 404.732 116.06 404.492L116.06 389.657C116.06 389.417 116.255 389.222 116.495 389.222C116.735 389.222 116.93 389.417 116.93 389.657ZM122.405 369.391L122.405 385.336L124.565 385.336C124.805 385.336 125 385.531 125 385.771C125 386.011 124.805 386.206 124.565 386.206L120.53 386.206C119.36 386.206 118.1 385.846 117.245 384.991C116.495 384.241 116.06 383.221 116.06 382.141L116.06 378.511L116.06 376.216L116.06 372.571C116.06 371.506 116.495 370.486 117.245 369.721C118.1 368.881 119.36 368.506 120.53 368.506L124.565 368.506C124.805 368.506 125 368.716 125 368.941C125 369.181 124.805 369.391 124.565 369.391L122.405 369.391ZM116.93 378.511L116.93 382.141C116.93 382.996 117.275 383.791 117.875 384.376C118.55 385.066 119.6 385.336 120.53 385.336L121.085 385.336L121.52 385.336L121.52 369.391L121.085 369.391L120.53 369.391C119.6 369.391 118.55 369.661 117.875 370.351C117.275 370.936 116.93 371.731 116.93 372.571L116.93 376.216L116.93 378.511ZM116.93 350.238L116.93 357.213L124.565 357.213C124.805 357.213 125 357.423 125 357.663C125 357.888 124.805 358.098 124.565 358.098L116.93 358.098L116.93 365.073C116.93 365.313 116.735 365.508 116.495 365.508C116.255 365.508 116.06 365.313 116.06 365.073L116.06 350.238C116.06 349.998 116.255 349.803 116.495 349.803C116.735 349.803 116.93 349.998 116.93 350.238ZM120.095 331.547C120.095 330.197 121.205 329.087 122.555 329.087C123.905 329.087 125 330.197 125 331.547L125 345.857C125 346.097 124.805 346.292 124.565 346.292C124.325 346.292 124.13 346.097 124.13 345.857L124.13 331.547C124.13 330.677 123.425 329.972 122.555 329.972C121.685 329.972 120.965 330.677 120.965 331.547L120.965 344.342C120.965 345.692 119.87 346.787 118.52 346.787C117.17 346.787 116.06 345.692 116.06 344.342L116.06 330.032C116.06 329.792 116.255 329.582 116.495 329.582C116.735 329.582 116.93 329.792 116.93 330.032L116.93 344.342C116.93 345.212 117.65 345.917 118.52 345.917C119.39 345.917 120.095 345.212 120.095 344.342L120.095 331.547Z" fill="white"/>
<path d="M78.5 336.5C102 264.5 174 232 174 232V521H61C61 521 55 408.5 78.5 336.5Z" fill="#D9D9D9"/>
</g>
<defs>
<filter id="filter0_f_291_34" x="208" y="295" width="116" height="195" filterUnits="userSpaceOnUse" color-interpolation-filters="sRGB">
<feFlood flood-opacity="0" result="BackgroundImageFix"/>
<feBlend mode="normal" in="SourceGraphic" in2="BackgroundImageFix" result="shape"/>
<feGaussianBlur stdDeviation="20" result="effect1_foregroundBlur_291_34"/>
</filter>
<filter id="filter1_f_291_34" x="104" y="516" width="195" height="116" filterUnits="userSpaceOnUse" color-interpolation-filters="sRGB">
<feFlood flood-opacity="0" result="BackgroundImageFix"/>
<feBlend mode="normal" in="SourceGraphic" in2="BackgroundImageFix" result="shape"/>
<feGaussianBlur stdDeviation="20" result="effect1_foregroundBlur_291_34"/>
</filter>
<filter id="filter2_f_291_34" x="64" y="299" width="116" height="195" filterUnits="userSpaceOnUse" color-interpolation-filters="sRGB">
<feFlood flood-opacity="0" result="BackgroundImageFix"/>
<feBlend mode="normal" in="SourceGraphic" in2="BackgroundImageFix" result="shape"/>
<feGaussianBlur stdDeviation="20" result="effect1_foregroundBlur_291_34"/>
</filter>
</defs>
</svg>
